/* XPM */
static char *_34c83fc9c6f43ccaf980525f3ef8f05RwEXPgs94OeIqlRg[] = {
/* columns rows colors chars-per-pixel */
"64 64 225 2 ",
"   c None",
".  c #1C010F",
"X  c #1E0514",
"o  c #1B0A14",
"O  c #2B000A",
"+  c #26000D",
"@  c #32040C",
"#  c #260313",
"$  c #2A0314",
"%  c #220914",
"&  c #2E0A1D",
"*  c #290A19",
"=  c #340111",
"-  c #300519",
";  c #34141E",
":  c #291A28",
">  c #3B1B2F",
",  c #211E31",
"<  c #38332C",
"1  c #2C2236",
"2  c #3C2D3C",
"3  c #392739",
"4  c #3D313A",
"5  c #3C3B36",
"6  c #2E2326",
"7  c #4A131E",
"8  c #4E1C1C",
"9  c #46131C",
"0  c #55131D",
"q  c #5A141D",
"w  c #501B1E",
"e  c #4F0E17",
"r  c #4D1523",
"t  c #4C1A25",
"y  c #4D1C2C",
"u  c #471825",
"i  c #521522",
"p  c #5A1621",
"a  c #541A24",
"s  c #5D1A24",
"d  c #541B2A",
"f  c #581B2A",
"g  c #441C31",
"h  c #461F38",
"j  c #561F31",
"k  c #651C26",
"l  c #4C232B",
"z  c #4C2B2D",
"x  c #44202A",
"c  c #55212D",
"v  c #442435",
"b  c #432A35",
"n  c #4A2B34",
"m  c #45243B",
"M  c #4B253A",
"N  c #452C3B",
"B  c #4B2A3C",
"V  c #4C2634",
"C  c #542636",
"Z  c #5B2533",
"A  c #532B33",
"S  c #5B2C35",
"D  c #54263B",
"F  c #542C3D",
"G  c #5C2D3C",
"H  c #5A273A",
"J  c #42323D",
"K  c #4C313D",
"L  c #453D37",
"P  c #5B333D",
"I  c #53353B",
"U  c #493B2E",
"Y  c #6C242E",
"T  c #63202C",
"R  c #632531",
"E  c #642934",
"W  c #6B2A35",
"Q  c #642D3B",
"!  c #6A2D3B",
"~  c #6C2731",
"^  c #722B33",
"/  c #762F39",
"(  c #63323D",
")  c #6C323C",
"_  c #76343D",
"`  c #7B343E",
"'  c #76383C",
"]  c #393747",
"[  c #3F3D54",
"{  c #4B2D42",
"}  c #442942",
"|  c #532E42",
" . c #5A2E43",
".. c #572F4A",
"X. c #443342",
"o. c #4C3542",
"O. c #453945",
"+. c #4A3944",
"@. c #423249",
"#. c #4C374B",
"$. c #443D4C",
"%. c #4B3A4D",
"&. c #543345",
"*. c #5B3344",
"=. c #533946",
"-. c #543449",
";. c #5A354A",
":. c #553A4C",
">. c #5D394E",
",. c #5A3846",
"<. c #463D53",
"1. c #573952",
"2. c #643344",
"3. c #653748",
"4. c #743542",
"5. c #7B3641",
"6. c #763943",
"7. c #7D3B44",
"8. c #7C3E4A",
"9. c #763B4D",
"0. c #703F52",
"q. c #603D53",
"w. c #3E4057",
"e. c #4C424A",
"r. c #4A4247",
"t. c #574846",
"y. c #59524D",
"u. c #454255",
"i. c #4C4454",
"p. c #44425B",
"a. c #4C465A",
"s. c #544A57",
"d. c #514559",
"f. c #53535B",
"g. c #7C4146",
"h. c #75424B",
"j. c #7C414A",
"k. c #774347",
"l. c #7C4252",
"z. c #774352",
"x. c #635956",
"c. c #684D5C",
"v. c #626053",
"b. c #5F5866",
"n. c #4C4A62",
"m. c #645E68",
"M. c #645D73",
"N. c #755363",
"B. c #6C6662",
"V. c #69656A",
"C. c #766673",
"Z. c #7D7973",
"A. c #746C71",
"S. c #85393E",
"D. c #80403F",
"F. c #823D46",
"G. c #8B3D43",
"H. c #823E49",
"J. c #893C4A",
"K. c #843744",
"L. c #84414B",
"P. c #89434D",
"I. c #84444B",
"U. c #834451",
"Y. c #8A4651",
"T. c #8E4B55",
"R. c #864853",
"E. c #914C56",
"W. c #924F59",
"Q. c #994F5B",
"!. c #8E5059",
"~. c #94525C",
"^. c #98545E",
"/. c #A1565D",
"(. c #945360",
"). c #9A5661",
"_. c #9C5A64",
"`. c #9D5C6A",
"'. c #A45D6A",
"]. c #A85F70",
"[. c #9F616A",
"{. c #8A6676",
"}. c #966873",
"|. c #887D7C",
" X c #916B77",
".X c #A6636D",
"XX c #AA636D",
"oX c #A7696D",
"OX c #A46573",
"+X c #AC6673",
"@X c #A56B73",
"#X c #AD6A74",
"$X c #AA6A7A",
"%X c #A46F7D",
"&X c #B26C76",
"*X c #B4727A",
"=X c #B9747E",
"-X c #BF7A7F",
";X c #B3666E",
":X c #8A837B",
">X c #867A83",
",X c #86758A",
"<X c #BC7A83",
"1X c #B97581",
"2X c #C17A86",
"3X c #C47A85",
"4X c #8A8581",
"5X c #9B9187",
"6X c #9599AC",
"7X c #9997AC",
"8X c #9092A8",
"9X c #A98DA5",
"0X c #A395AC",
"qX c #A4A1B4",
"wX c #C1A1AD",
"eX c #B5BCC4",
"rX c #C5BFD3",
"tX c #BBC2C8",
"yX c #C5C5DB",
"uX c #D1C7DC",
"iX c #D5D4E8",
"pX c #D6CDE5",
"aX c #DEE0F7",
"sX c #FDFAFF",
"dX c #F9F8FF",
/* pixels */
"                                                                                                                                ",
"                                                                                                                                ",
"                                                                                                                                ",
"                                                                                                                                ",
"                                                                                                                                ",
"                                                                                                                                ",
"                                                                                                                                ",
"                                                                                                                                ",
"                                                                                                                                ",
"                                                                                        C.                                      ",
"                                                    .           n z z A A z P S @ S S S ( ( c ( P ,.K                           ",
"                                            % X % # wX* N.F -.> 8 8 9 w 8 g.g.6.' I.I.7.L.F.7.F.j.4.( ;.                        ",
"                                      X & .  X{.{.}.O S y u y 0.g.7.!.' ' oXoX<X<X*XXX.X=XXX&X+X-X#X@XA                         ",
"                                      % {.- S Z d 7 0 a 4.U.8.$X+X.X*X&X#X7.F.F.7.L.F.P.H.H.5.F.G.F.7.}.;.                      ",
"                                      *  X= ! W 0 s q q F.P.H..X+XXX2XXX#XF.H.F.H.F.L.5.L.P.7.L.S.K.U.%XF                       ",
"                                  K =.F S t i 0 F.G.G.S.;XXX=XP.K.J.H.H.K.F.F.L.F.L.7.H.F.7.H.H.G.K.8.z.F #.                    ",
"              2 ,         c ) W T p s 0 0 H.H.F.XX.X<X.XL.H.7.L.H.H.5.L.7.L.L.7.H.7.H.L.L.7.L.7.K.L.g.g.@XQ                     ",
"              1 2 :   I A ) 0 0 p F._ P.L.#X.X#XP.L.F.H.7.7.L.7.H.H.L.7.F.F.7.L.H.L.7.F._ H.L.L.K.F.U.7.L.OX                    ",
"              > *.B x l a e F.L.H.&X.X<X'.7.H.H.7.7.L.H.F.H.F.L.7.F.7.H.H.E._.7.T.^.~.).~.).~.E.P.5.7.6.8.L.                    ",
"            ,XF y u h.h.7.H.XXXX+XF.L.F.L.P.7.H.F.L.5.H.L.7.H.7.^.H.).L.).7.7.~.^.~.~.~.~.~.~.).W.L.L.I.L.7.OX                  ",
"            g d U.L.@X[.<X&XP.K.F.7.H.H.5.H.L.H.P.5.Y.7.H.W.L.).^.W.7.~.7.^.~.Y.~.~.~.~.T.).W.~.Q.~._ 7.F.P.+X                  ",
"            *.r H..XL.L.K.K.F.F.H.H.Y.5.L.L.5.L.7.7.H.F.F.P.T.~.~.7._.7.^.7.H.T.~.^.H.7.s ~.W.).).W._.F.L.F.+XQ                 ",
"            A r H.P.7.7.L.F.7.L.H.L.5.H.~.7.L.H.P.5.L.7.L.W.L.7.H.H.L.W.L.^.T.P.W.^.H.H.0 ).W.~.E._.~.7.7.K.3XR                 ",
"            n t j.7.g.g.F.7.H.H.H.H.L.~.L.~.L.7.7.H.H.H.7.L.T.H.~.7.^.H.~.7.L.W.^.W.H.H.q ~.~.~.).Y._.7.F.J.XXW                 ",
"            n t j.j.g.g.F.H.H.H.L.7.~.L.~.F.L.7.H.7.H.H.L.T.T.T.L.~.H.W.F.).W.H.~.^.F.L.0 ~.~.^.(.~.~.7.F.H.XXW                 ",
"            =.; h.j.g.8.H.H.H.H.7.L.7.~.7.~.7.Y.H.F.L.7.7.L.E.F.E.H.~.Y.W.p 0 p 0 0 L.7.L.0 p W.(.~.~.7.F.F.XXE                 ",
"            v l j.8.j.H.H.J.H.J.L.F.L.H.H.H.7.F.H.7.7.L.L.W.H.^.Y.T.L.~.H.7.Y.7.L.H.F.P.5.Y.s W.(.~.~.7.F.K.&XE P               ",
"            I u j.H.H.H.H.J.H.J.F.7.L.7.L.L.Y.T.H.7.L.7.7.L.).7.E.L.~.7.~.L.7.L.F.H.F.L.F.5.e ).~.~.~.7.L.F.2XW A               ",
"            n u 8.H.H.H.J.J.H.H.H.L.F.H.5.7.F.L.E.L.H.L.P.~.7.~.L.T.L._.F.~.~.H.~.~.H.H.q _.~.~.~.~.~.7.P.F.2X! P               ",
"            K t 8.H.H.H.H.H.H.H.7.F.L.H.P.H.W.~.L.7.H.5.F.L.).H.).L.T.L.~.T.L.~.~.).L.F.q ~.^.W.Q.~.^.7.F.F.=X! G               ",
"            n c H.H.H.F.F.F.g.j.H.L.7.L.7.7.H.L.T.L.H.L.H.T.H.~.~.~.L.~.F._.T.L.).W.5.P.0 ~._.~.Q.^.^.7.F.H.+X! F               ",
"            K 9 H.H.F.F.F.F.g.k.H.L.7.H.L.7.L.7.L.7.H.7.7.P.~.~.~.H.~.H.W.L.E.^.~.).F.F.p ~.W.~.Q.Q.~.F.F.J.].! *.              ",
"            V a h.@XD.S.P.7.H.F.F.H.L.L.F.7.L.H.H.H.L.H.7.~.H.).(.(.~.~.~.~.~.^.~.~.~.~.~.~.(.(./.E.!.U.6.U.*X! Q               ",
"            P 7 h.j.oXXXXX+XT.F.L.L.` L.L.L.7.7.F.L.5.L.H.^.^.W.(.(.~.(.~.~.!.W.~.~.~.~.~.~.~.(.E.^.U.) R.I.#XE G               ",
"            P S t t g.L.6.U.`.$X+X` P.F.7.H.F.H.L._ P.L.5.P._ L.~.(.~.~.E.).^.^.~.~.~.~.~.~.~.~.Q.P.7.j.7.6..XW S               ",
"            F S u C w a f d 9.l.H..X#X+X*XL.F.H.7.L.F.7.L.L.F.L.7.L.7.L.L.W.E.~.~.~.~.~.~.~.~.~.K.7.L.L.L.L.&XE u               ",
"          9XG 2.C 3.S E Q H y u i R.6.8.R.[.+X#XP.H.7.F.H.F.F.F.H.L.F.H.F.P.L.F.F.F.F.F.F.F.F.H.P.F.H.7.7.XXY ! 2.              ",
"            *.D g  .2.2. . . . .H 9 d t 7 l.j.7.OX`.2X+XP.7.F.F.H.F.F.F.K.K.F.F.F.F.F.F.F.F.F.F.F.H.H.L.XXY q i S               ",
"            |  .M ;. .*. . .q.*.*.P *.G G u d a j.U.8.H.'.&X1XJ.F.7.L.F.L.` F.P.F.F.F.F.F.F.F.F.7.L.7.H.^ q ^ ! *.              ",
"            ....h { | M ;.;.-.;.&.&.&.&.*.*.( Z d r i p U.F.L.'.+X+X=X#X.XL.F.7.F.H.F.H.H.H.H.H.8.H.H.XXq ^ ~ ! P               ",
"            9X>.m -.B ;.B m &.m :.o.&.&.;.*.*.2.= = 2.Q i d a 8.8.7.8.H.H.+X#X1X<X<X.X<X#X.X#X1XOX$X.X~ ^ ^ ^ Q C               ",
"            9X{ } 3 -.B { 1.m :.3 :.{ &.,.| *.$ + 2.2.O 2.H 2.y r f i i i 7.7.U.L.L.6.I.8.6.8.j.l.8.W p Y ^ W Z *.              ",
"            9X:.} #.v &.{ m #.N 1.m -.m B >.h - $ ;.;.- *.,.&.*.( Q 7 r Q ! ) E E ! ! ! Q ! Q Q G Z a ~ / k T Q M               ",
"          ,X,Xc.:.+.K N N %.3 %.B { { >.-.m >.M * M -.# &.&.K &.G 2.2.G Q = H Q ( Q 2.Q G 2.*.*.*.3.E Y ^ / W j F               ",
"          ] 6 C.A.e.L e.%.@.@.@.:.N { B B | v # B # {.# &.b :.=.*.F *.*.F $ 2.G 2.G *.G  .*.*.*.*.G ! / k k f 3.>.              ",
"          ] |.x.:X< y.y.m.i.$.<.N N o.B B &.,.v ;.v & * B &.v &.B | ;.;.& # *.*.*.*.*.;.;.;.&.,.;. .! W Y / R C                 ",
"            :Xy.Z.5 y.y.m.u.[ n.4 4 2 X.o.b o.n &.B $ # h *.| *.B -.-.&.. & F *.| ;.| >.&.&.-.&.,.F ! _ ^ Y R  .                ",
"            5XU Z.5 v.4Xf.M.yX6Xr.r.e.+.X.b K &.B *.$ - 2.C  .C -.{ m m & g | -.B ,.M &.m B o.{ &. .c s k Y 4.2.                ",
"                Z.L x.B.5 V.    tXeX6X8Xw.p.p.] ] 2 O.o % K N &.{ -.-.&.B -.| B ,.M -.B -.| { -.l ( ! ! H :.                    ",
"                :XL B.4XV.            6XdX    p.u.<.O.2 X.* X v { { N { &.B B &.v &.b B B B -.B P A d j q.                      ",
"                4X< B.Z.b.                          rXd.%.%.1.@.X.X.X.+.b X.o.N o.K o.b o.=.3 =.b &.2.D                         ",
"                >X6 x.s.                                uXpX0X<.e.i.X.2 O.J 4 J J J J J J J J J X.2 B q.                        ",
"                b.3 s.2                                       7XrXdXa.] i.u.i.$.i.$.$.d.$.$.i.$.u.a.#.1.                        ",
"                M.1 M.                                                aX8XiXyX8XqX7XsX, sXdX7XiX6X7X0X                          ",
"                  p.                                                                                                            ",
"                                                                                                                                ",
"                                                                                                                                ",
"                                                                                                                                ",
"                                                                                                                                ",
"                                                                                                                                ",
"                                                                                                                                ",
"                                                                                                                                ",
"                                                                                                                                ",
"                                                                                                                                "
};