/* XPM */
static char *_c99cca5f352406ba63d6b9dbbbb601dfzuX79r5tHL5e9ne[] = {
/* columns rows colors chars-per-pixel */
"64 64 54 1 ",
"  c black",
". c black",
"X c #000001",
"o c #000077",
"O c #0000BE",
"+ c #000330",
"@ c #00053C",
"# c #00118C",
"$ c #0079FB",
"% c #020101",
"& c #030002",
"* c #030202",
"= c #040002",
"- c #040202",
"; c #050304",
": c #060001",
"> c #060101",
", c #080000",
"< c #080500",
"1 c #130900",
"2 c #181818",
"3 c gray12",
"4 c #202530",
"5 c #231420",
"6 c #2B5397",
"7 c #2D1A29",
"8 c #2E3E5D",
"9 c #362F2D",
"0 c #434343",
"q c #482000",
"w c #4A4442",
"e c #4B6495",
"r c #502900",
"t c #535353",
"y c #6FC3EF",
"u c #7B3323",
"i c gray53",
"p c #8B9EC4",
"a c #979797",
"s c #A7573B",
"d c #A7A7A7",
"f c #AD0200",
"g c #B84E00",
"h c #F5EAA9",
"j c #FFEB96",
"k c white",
"l c #344668",
"z c #040203",
"x c #000104",
"c c #313949",
"v c #607BAF",
"b c #020202",
"n c #1D232B",
"m c #010205",
/* pixels */
"****************************************************************",
"****************************************************************",
"****************************************************************",
"****************************************************************",
"wwwwwwwwwww****757w9999wwwwwww7557****99999997757999999999999999",
"wwwwwwwwwww****7,k57999wwwwww7kkkk7***9999997kk17999999999999999",
"wwwwwwwwwww****c1k15999wwwwww5kkkk5***9999995kk5c999999999999999",
"wwwwwwwwwww****ww5kk5777www75dkkkkd57*997777k;599999999999999999",
"wwwwwwwwwww****ww7kk2215www7;dkkkkd;7*99515;k;799999999999999999",
"wwww999799999cc997dakkdd575ddkkkkkkdd555dakkd5799c99999979999999",
"wwww975d57997dd579;xdakkkddddkkkkkkddddkkkdd59975d579975a5799999",
"wwww97;am5991ad=791Xadkkkdaadkkkkkkaaadkkkdd5997bdx5995 a1799999",
"wwww971km;55;kk:;;,&mm-%%kkkkdkkkkdkkkkXxXb ;2;;bkX;55;mk;799999",
"****971kmmXxmkk,b >:;m XxkkkkdkkkkdkkkkXmxbb  b  km; Xmmk;799999",
"****971kkkdamadkkakkkkmmkm < kdaadkm;=,kb kkkaakkd; dakkk;799999",
"****975kkkdamddkkdkkkkxmkm*  kaddakmX:,kbbkkkadkka:<aakkk5799999",
"****9c7dkkkkk badkkkkk  k b ; daad ; b kb kkkkkdabkkkkkkd7c99999",
"****9997dakkkkkkkkkkdd; akkda;kkkk;adkka ;dakkkkkkkkkkad79999999",
"****9997dakkkkkkkkkkdd  dkkda kkkk adkkd* adkkkkkkkkkkad79999999",
"****9999522;dkkkkd  * b*%adkkkkkkkkkkda%b% ; adkkkdd;;1599999999",
"****99997777dkkkkd;;  ;  adkkkkkkkkkkda     *dakkkdd777799999999",
"****999999995<<=;    * ; ; dak;  ;kad ;  b; ; b;,,:5999999999999",
"wwwwwwww99995aa% a; ; *  * kkkkkkkkkk *  * b da  d 5999999999999",
"wwwwwwww99995ad %a   b%%   kkkkkkkkkk     * ;ad% ab5999999999999",
"wwwwwwww99997kkb*a;  %   ; ddkkkkkkdd ; %  b da%bkX7999999999999",
"wwwwwwww99995kkb d %  **%b aakkkkkkaa b% ;   ad bk&5999999999999",
"wwww9999999*5aabb;da ;b bad bdkkkkdb dab ;  d% b ab59***********",
"wwww9999999*5dam; dd  b% da ;akkkka; ad * * d  b;a 59***********",
"wwww99999975d:mm%;da%   %ad %; ** ;% da%b   d; bmmdd57**********",
"wwww9999995%dkkdd %;ad%*akk  kddddk  kka  dd;  ddkda 5**********",
"wwww9999995*akkad * dd  dkk ;kaaaak; kkd; da ;badkdab5;*********",
"********w7ddk  % d %ad ;k; *  kkkk  * ;k bad da%b<kkdd7w********",
"********5 dakb   a; ad  k; ; ;kkkk; ; ;k ;dd dd b kkddm5********",
"********5<kkkdd% %ad ** k  ddk ;; kdd  kb   db   dkkkkm5********",
"********5>kkkdd; bdd    k;*adk    kda*;k ;% d %bmakkkkm5;*******",
"wwww9997kk> bkkdd aa*;add    baddab    dda %a; aak%<bbkk7999****",
"wwww99975,adk  kkd; ; ad *;;  kkkk  ;;* ad ;%ddkkbkkad;57999****",
"wwww999721dak  kka ;  da% %  *kkkk*  % %dd   adkkbkkaaz57999****",
"wwww9997kkkkkkkX d% dd %*ddkk kkkk kkdd*; dd dd%mkkkkkkk7999****",
"wwww9995kkkkkkkXba* dd% %aakk kkkk kkaa%  da;aab kkkkkkk5999****",
"****975kmmkkmkk ;a;  *adkb;kkdaddadkk;bkaa*  dd  kxmkk&;k5799999",
"****975dmxad;da<%   adkka  * kkkkkk *  akkad* *  dmmddzmd5799999",
"****9c7dm;ddmad  ;* ddkkd b  kkkkkk  b dkkda; b =dxmaa;;d5799999",
"****99975;12;;- b kkkkda  b ;  bb  ; b  dakkk ; <,22111579999999",
"****9997777752:b% kkkkad; * ;;    ;; * ;adkkk  b%157777779999999",
"****99999999951, ;kkkk;   bdaaaaaaaadb  b%kkk*b*:599999999999999",
"****999999999775* kkkk ;; badddaadddab ;  kkkb  5799999999999999",
"****999999999995b% % *ad dab%      %bad dabb   %5999999999999999",
"****999999999999995mddkk%1799999999997;mkkdd79999999999999999999",
"wwww****999999999975ddkk-,599999999995;mkkdd79999999999999999999",
"wwww****9999999999995:ddk;;5799999975;;kdab599999999999999999999",
"wwww****9999999999995,aak;X;599999971=;kddb199999999999999999999",
"wwww****999999999975;  %;kkkk599995kkkk;,, ,79999999999999999999",
"****99999999999997hkdakkkddm;h7777a11ddkkkddk7799999999999999999",
"****99999999999997kkddkkkdd55h7777955ddkkkdak1599999999999999999",
"****9999999999985kddmmkkd17997****7**5;dkkmxakk58999999999999999",
"****99999999999c;kadmmkkd5799w****w**75dkkxxdkk;c999999999999999",
"****wwwwwww****8;;;;;;15799999*********755;;;;15w99999999999****",
"****wwwwwww****w77777777c99999*********777777777w99999999999****",
"****wwwwwww************9999999***************999999999999999****",
"****wwwwwww************9999999***************999999999999999****",
"****wwwwwww************9999999***************999999999999999****",
"****************************************************************",
"****************************************************************"
};