/* XPM */
static char *_960104fd195492d9f053f4f07832e82Zu7EJF7h8CDAjlPF[] = {
/* columns rows colors chars-per-pixel */
"64 64 54 1 ",
"  c black",
". c black",
"X c #000001",
"o c #000077",
"O c #0000BE",
"+ c #000330",
"@ c #00053C",
"# c #00118C",
"$ c #0079FB",
"% c #020101",
"& c #030002",
"* c #030202",
"= c #040002",
"- c #040202",
"; c #050304",
": c #060001",
"> c #060101",
", c #080000",
"< c #080500",
"1 c #130900",
"2 c #181818",
"3 c gray12",
"4 c #202530",
"5 c #231420",
"6 c #2B5397",
"7 c #2D1A29",
"8 c #2E3E5D",
"9 c #362F2D",
"0 c #434343",
"q c #482000",
"w c #4A4442",
"e c #4B6495",
"r c #502900",
"t c #535353",
"y c #6FC3EF",
"u c #7B3323",
"i c gray53",
"p c #8B9EC4",
"a c #979797",
"s c #A7573B",
"d c #A7A7A7",
"f c #AD0200",
"g c #B84E00",
"h c #F5EAA9",
"j c #FFEB96",
"k c white",
"l c #344668",
"z c #040203",
"x c #000104",
"c c #313949",
"v c #607BAF",
"b c #020202",
"n c #1D232B",
"m c #010205",
/* pixels */
"****************************************************************",
"****************************************************************",
"****************************************************************",
"****************************************************************",
"wwwwwwwwwww****wwww9999wwwwwww********99999999999999999999999999",
"wwwwwwwwwww****wwww9999wwwwwww********99999999999999999999999999",
"wwwwwwwwwww****wwww9999wwwwwww********99999999999999999999999999",
"wwwwwwwwwww****wwww9999wwwwwww********99999999999999999999999999",
"wwwwwwwwwww****wwww9999wwwwwww********99999999999999999999999999",
"wwww99999999999999999999999999****999999999999999999999999999999",
"wwww99999999999999999999999999****999999999999999999999999999999",
"wwww99999999999999999999999999****999999999999999999999999999999",
"wwww99999999999999999999999999****999999999999999999999999999999",
"****99999999999999999999999999****999999999999999999999999999999",
"****99999999999999999999999999****999999999999999999999999999999",
"****99999999999999999999999999****999999999999999999999999999999",
"****99999999999999999999999999****999999999999999999999999999999",
"****99999999999999999999999999****999999999999999999999999999999",
"****99999999999999999999999999****999999999999999999999999999999",
"****99999999999999999999999999****999999999999999999999999999999",
"****99999999999999999999999999****999999999999999999999999999999",
"****99999999999999999999999999****999999999999999999999999999999",
"wwwwwwww9999999999999999999999********99999999999999999999999999",
"wwwwwwww9999999999999999999999********99999999999999999999999999",
"wwwwwwww9999999999999999999999********99999999999999999999999999",
"wwwwwwww9999999999999999999999********99999999999999999999999999",
"wwww9999999****99999999***************999999999999999***********",
"wwww9999999****99999999***************999999999999999***********",
"wwww9999999****99999999***************999999999999999***********",
"wwww9999999****99999999***************999999999999999***********",
"wwww9999999****99999999***************999999999999999***********",
"****************************************************************",
"****************************************************************",
"****************************************************************",
"****************************************************************",
"wwww9999***wwwwwwww***********999999999999***999999999999999****",
"wwww9999***wwwwwwww***********999999999999***999999999999999****",
"wwww9999***wwwwwwww***********999999999999***999999999999999****",
"wwww9999***wwwwwwww***********999999999999***999999999999999****",
"wwww9999***wwwwwwww***********999999999999***999999999999999****",
"****999999999999999999999999999999999999999999999999999999999999",
"****999999999999999999999999999999999999999999999999999999999999",
"****999999999999999999999999999999999999999999999999999999999999",
"****999999999999999999999999999999999999999999999999999999999999",
"****999999999999999999999999999999999999999999999999999999999999",
"****999999999999999999999999999999999999999999999999999999999999",
"****999999999999999999999999999999999999999999999999999999999999",
"****999999999999999999999999999999999999999999999999999999999999",
"****999999999999999999999999999999999999999999999999999999999999",
"wwww****99999999999999999999999999999999999999999999999999999999",
"wwww****99999999999999999999999999999999999999999999999999999999",
"wwww****99999999999999999999999999999999999999999999999999999999",
"wwww****99999999999999999999999999999999999999999999999999999999",
"****99999999999999999999999999************9999999999999999999999",
"****99999999999999999999999999************9999999999999999999999",
"****99999999999999999999999999************9999999999999999999999",
"****99999999999999999999999999************9999999999999999999999",
"****wwwwwww************9999999***************999999999999999****",
"****wwwwwww************9999999***************999999999999999****",
"****wwwwwww************9999999***************999999999999999****",
"****wwwwwww************9999999***************999999999999999****",
"****wwwwwww************9999999***************999999999999999****",
"****************************************************************",
"****************************************************************"
};