/* XPM */
static char *c83e04ab1a6649f0cb8dbcf59b62d114CcRtGffnOXeDqE2C[] = {
/* columns rows colors chars-per-pixel */
"64 64 120 2 ",
"   c None",
".  c black",
"X  c #010101",
"o  c #020202",
"O  c gray1",
"+  c #040404",
"@  c gray2",
"#  c #060606",
"$  c #070707",
"%  c gray3",
"&  c #090909",
"*  c gray4",
"=  c #0B0B0B",
"-  c #0C0C0C",
";  c gray5",
":  c #0E0E0E",
">  c gray6",
",  c #101010",
"<  c #111111",
"1  c gray7",
"2  c #131313",
"3  c gray8",
"4  c #151515",
"5  c gray9",
"6  c #181818",
"7  c #191919",
"8  c gray10",
"9  c #1B1B1B",
"0  c #1D1D1D",
"q  c #1E1E1E",
"w  c #202020",
"e  c gray13",
"r  c gray14",
"t  c #252525",
"y  c #272727",
"u  c #282828",
"i  c gray17",
"p  c #2C2C2C",
"a  c gray21",
"s  c #373737",
"d  c gray22",
"f  c gray30",
"g  c #5A5A5A",
"h  c #5B5B5B",
"j  c #5D5D5D",
"k  c #656565",
"l  c gray40",
"z  c #676767",
"x  c #686868",
"c  c DimGray",
"v  c #6C6C6C",
"b  c gray44",
"n  c #727272",
"m  c #777777",
"M  c #797979",
"N  c #7E7E7E",
"B  c gray50",
"V  c #838383",
"C  c gray52",
"Z  c gray53",
"A  c gray55",
"S  c #8D8D8D",
"D  c #8E8E8E",
"F  c #909090",
"G  c #929292",
"H  c #939393",
"J  c gray58",
"K  c gray59",
"L  c #979797",
"P  c #989898",
"I  c gray60",
"U  c #9B9B9B",
"Y  c gray62",
"T  c #9F9F9F",
"R  c gray63",
"E  c #A4A4A4",
"W  c #A5A5A5",
"Q  c #A7A7A7",
"!  c gray66",
"~  c #B4B4B4",
"^  c gray73",
"/  c gray",
"(  c #C0C0C0",
")  c #C5C5C5",
"_  c gray80",
"`  c gray82",
"'  c #D2D2D2",
"]  c gray83",
"[  c #D5D5D5",
"{  c gray84",
"}  c #D7D7D7",
"|  c gray85",
" . c #DADADA",
".. c gray86",
"X. c gray87",
"o. c gray88",
"O. c gray89",
"+. c #E4E4E4",
"@. c #E6E6E6",
"#. c #E7E7E7",
"$. c #E9E9E9",
"%. c gray92",
"&. c #EEEEEE",
"*. c #EFEFEF",
"=. c gray94",
"-. c #F1F1F1",
";. c gray95",
":. c #F3F3F3",
">. c #F4F4F4",
",. c gray96",
"<. c #F6F6F6",
"1. c gray97",
"2. c #F8F8F8",
"3. c #F9F9F9",
"4. c gray98",
"5. c #FBFBFB",
"6. c gray99",
"7. c #FDFDFD",
"8. c #FEFEFE",
"9. c white",
/* pixels */
"                                          # # . 9.9.9.9.9.9.9.9.9.9.9.9.# # #                                                   ",
"                                      # . 1.1.1.9.9.9.9.9.9.9.9.9.9.9.9.1.1.2.# #                                               ",
"                                . 9.9.9.9.9.9.9.9.9.9.9.9.9.9.9.9.9.9.9.9.9.9.9.9.9..                                           ",
"                              = { 9.9.9.9.9.9.9.9.9.9.9.9.9.9.9.9.9.9.9.9.9.9.9.9.9.9..                                         ",
"                            . 1.9.9.9.9.9.9.9.9.9.9.9.9.9.9.9.9.9.9.9.9.9.9.9.9.9.9.9.2.. .                                     ",
"                          . 9.9.9.9.9.9.9.9.9.9.9.9.9.9.9.9.9.9.9.9.9.9.9.9.9.9.9.9.9.9.9.2.                                    ",
"                        # { 9.9.9.9.9.9.9.9.9.9.9.9.9.9.9.9.9.9.9.9.9.9.9.9.9.9.9.9.9.9.9.9..                                   ",
"                        # { 9.9.9.9.9.9.9.9.9.9.9.9.9.9.9.9.9.9.9.9.9.9.9.9.9.9.9.9.9.9.9.9..                                   ",
"                        # { 9.9.9.9.9.a a a a a e 9.9.9.9.9.9.9.9.9.9.a a a a a e 9.9.9.9.9..                                   ",
"                        # { 9.2.9 . . . . . . . . . 9.9.9.9.9.9.9.. . . . . . . . . . 9.9.9..                                   ",
"                        # { 9.- . . . . . . # # . . 9.9.9.9.9.9.9.. . . # # . . . . . # 9.9..                                   ",
"                          . 9.# . . . . . . 9.9.. . 9.9.9.9.9.9.9.. . . 9.9.. . . . . . 9.2.                                    ",
"                          . 9.:.u # # . . . # # . # 9.9.9.2.. 9.9.. # . # # . . . # . 9.2.1.                                    ",
"                            . 2.9.9.9.. . . . . . 9.9.9.9.3 . 9.9.9.9.. . . . . . 9.9.9.. .                                     ",
"                            . 1.9.9.9.9.9.9.. . 9.9.9.9.. . . 9.9.9.9.9.. . 9.9.9.9.9.9.. .                                     ",
"                          . 9.9.y . . 9.9.9.9.9.9.9.9.9.. . . . *.9.9.9.9.9.9.9.9.. . 9.9.2.                                    ",
"                          . 9.. . . . 1.9.9.9.9.9.9.9.9.9.9.9.9.9.9.9.9.9.9.9.9.. . . . 9.9.                                    ",
"                        . . . 2.9. .1.. . :.e e e e e e e e e e e e e e e - X.. . *.9.9.. . .                                   ",
"                      . 9.9.9.. { 9.9.e . 9.1.9.9.. 9.9.9.1 9.9.9.. . 9.9.. 9.. 9.9.9.. 9.9.9.. .                               ",
"                  # X.9.# . e 0 # e # 9.9.1.O.9.9.. 9.9.9.1 9.9.9.. . 9.9.. O.9.9.- . e 0 0 . 9.9.. .                           ",
"                . . . 9.9.u . . . . . X.9.9.= . . . 9.9.9.1 9.9.9.. . . . 9.9.9.. . . . . . 9.9.1.. . .                         ",
"            . . 9.9.. . 2.9.. . . . . . . . 9.9.9.. . . . . . . . . . 9.9.9.. . . . . . . # 9.. . 9.9.9.. .                     ",
"          z 9.9.9.9.9.9.9.9.9.2.9 . . . . . . . 9.9.9.9.9.9.9.9.9.9.9.9.. . . . . . . 9.9.9.9.9.9.9.9.9.9.9..                   ",
"      . . . . . I # . . . ' 9.9.9.9.9.e . . . . . . . . . . . . . . . . . . . . 9.9.9.9.9.9.. . . . . 9.. . . .                 ",
"            . 9.. . . . . . . # @.9.9.9.9.. :.9.. . . 9.9.9.9.9.1 . . . 9.. . 9.9.9.9.. . . . . . . . - 9..                     ",
"          g :.. . . . . 9.3 . . . . . 9.9.9.. . 9.. . . 9.9.9.. . . . 9.. . 9.9.9.. . . . . 9.. . . . . # 9..                   ",
"      . . 9.9.. . . . . # { . . . . . . . 9.9 . . 9.9.. . . . . *.9.9.. . 9.9.. . . . . . # . . . . . . # 9.*..                 ",
"  . z 9.9.. . . . . . . # { 9.# . . . . . . 2.9.. . . 9.9.9.9.9.. . . . 9.. . . . . . . 9.9.. . . . . . . . 1 9.9..             ",
"  . z a . . . . . . . . #  .9.# . . . . . . . . . . 9.. 9.9.9.. *.. . . . . . . . . . . 9.9.. . . . . . . . . # 9..             ",
". 9.I . . . # 9.I # . . . . 9.# . . . . . . O.9.9.. 9.9.9.9.9.9.9.. . 9.9.. . . . . . . 9.2.. . . . . 9.9.. . . . 9.. .         ",
"_ . . . . . . . b 9.. . . . 9.# . . . . . . . . 9.. 9.9.9.9.9.9.9.. . 9.. . . . . . . . 9.2.. . . 9.9.. . . . . . . 9.I         ",
"( . . . . . . . . . 9.. #  .2.9.9.. . . . . . . 9.. 9.9.9.9.9.9.9.. . 9.. . . . . . 9.9.2.9.. . # . . . . . . . . . 1.K         ",
"( . . . . . . . . . . . 9.9.. . . . . X.9.9.9.9.9.. 9.9.9.9.9.9.9.. . 9.9.9.9.9.. . . . . # 9.. . . . . . . . . . . 1.K         ",
"/ . . . . . . . . . . . 2.2.. . . . . . . . O.9.9.. 9.. . . 9.2.2.. . 9.9.. . . . . . . . # 9.. . . . . . . . . . # :.F         ",
". 9.Y . . . . . . . . . :.u . . . . . . . . O.9.9.. 9.9.9.9.9.. . . . 9.9.. . . . . . . . . 9.. . . . . . . . . . 9.. .         ",
"  . z d # . . . . . . . :.u . . . . . . . . O.9.9.. 9.9.9.9.9.9.1 . . 9.9.. . . . . . . . . 9.. . . . . . . . # 9..             ",
"      . . I . . . . . 9.2.u . . . . . . . . O.9.. 9.9.9.9.9.9.9.9.9.9.. 9.. . . . . . . . . 9.9.1.. . . . . 9..                 ",
"          c %.= # # . 9.:.y . . . . . . . . O.9.. 9.9.9.9.9.9.9.9.9.9.. 9.. . . . . . . . . 9.9.1.= # # = 9..                   ",
"            # W 9.2.. 9.# . . . . . . . . . O.9.. 9.9.9.9.9.9.9.9.9.9.. 9.. . . . . . . . . . 9.1.9.9.2.W .                     ",
"                . . . 9.# . . . . . . . . . O.9.. 9.9.9.9.9.9.9.9.9.9.. 9.. . . . . . . . . . 9.1.. . .                         ",
"                  . g W Y c j . . . . . . . O.9.. 9.9.9.9.9.9.9.9.9.9.. 9.. . . . . . . z j ! R Y . .                           ",
"                  # 9.. . . . 9.9.9.9.. . . O.9.. 9.9.9.9.9.9.9.. . . . 9.. . . . 9.9.9.. . . . # . .                           ",
"                  # 9.9.# . . # { 2.2.2.9.. 9.9.. . . . . . . . . . . . 9.9.. 2.2.2.9.. . . . 9.9.. .                           ",
"                  # 1.9.# . # # # # # # # . 2.9.. . . . . . . . . . . . 2.9.. # # # - # . . . 9.9.. .                           ",
"                    . 9.# . 9.2.y . . . . . . . . . . . # # 9.. . . . . . . . . . 9.9.9.. . . 9.:.                              ",
"                    . 9.# . 9.2.y . . . . . . . . . . # 9.:.. . . . . . . . . . . 9.9.9.. . . # - . .                           ",
"                  # 9.. . . 9.2.y . . . . . . . . . . 9.@.1 . 3 . . . . . . . . . 9.9.9.. . . . # . 3                           ",
"                  # 9.. . . 9.F 3 . . . . . . . . . z 9..   . 9.- . . . . . . . . I 9.9.. . . . # 9.9..                         ",
"                b 2.9.. # { 9.# . . . . . . . . . 0 9..     . 9.9.. . . . . . . . . 9.9.9.2.. . . 9.9..                         ",
"                b 1.D . # { 9.# . . . . . . . . . 9.9..     . D 1.. . . . . . . . . 9.9.9.2.. . . 9.9..                         ",
"                b :.. . # { 9.# . . . . . . . . . 9.p         . *.. . . . . . . . . 9.9.9.2.. . . 9.9..                         ",
"                b :.# # = { 9.# . . . . . . . . . 9..         . *.. . . . . . . . . 9.9.9.2.# # # 9.9..                         ",
"                1 y y y y y 9. . . . .9 . . . . . 9..         . *.. . . . . . . . %.9.9.9.9.1 y y y u .                         ",
"                        . # = = = # # { :.1.1.1.:.2..         . %.:.1.1.1.1.1.1.9.. # = = = .                                   ",
"                        # ' 2.2.2.. # = = # # # # # .         . # # # # # # # = = # . 9.2.2..                                   ",
"                        # ~ 9.9.9.9.9.9.9..                                 . 9.9.9.9.9.9.9..                                   ",
"        . f C C C C C C C 3 B M %.9.9.9.9..                                 . 9.9.9.9.9.v m .   . . . . . .                     ",
"      ) 2.9.9.9.9.9.9.9.9.9.9.2.9 . . e . .                                 . . 9.9.. . . . 9.9.9.9.9.9.9.9.. .                 ",
"  D ^ 9.9.9.9.9.9.9.9.9.9.9.9.9.9.. . D D B                               . b K . K V 9.9.9.9.9.9.9.9.9.9.9.9.9.F .             ",
". 9.9.9.9.9.9.9.9.9.9.9.9.9.9.0 9 . . 9 9                                     9 . 9 9.9.9.9.9.9.9.9.9.9.9.9.9.9.9.@.. .         ",
". # # # # # # # # # # # # # #                                                       # # # = 2.2.2.2.2.2.2.2.2.2.2.1.. .         ",
"                                                                                                                                ",
"                                                                                                                                ",
"                                                                                                                                "
};